<svg width="30" height="30" viewBox="0 0 30 30" fill="none" xmlns="http://www.w3.org/2000/svg">
<path fill-rule="evenodd" clip-rule="evenodd" d="M13.2709 22.3043C12.7041 22.4681 12.0908 22.5508 11.4474 22.5508C10.7308 22.5508 10.042 22.4687 9.39971 22.3061C8.15686 21.9926 7.23847 21.398 6.80948 20.6319C6.6246 20.3008 6.53094 19.9479 6.53094 19.5824C6.53094 19.206 6.62097 18.8241 6.79861 18.4459C7.47955 16.9946 9.27464 16.0182 11.2631 16.0182H11.3199C11.1586 15.7336 11.0806 15.4387 11.0806 15.1288C11.0806 14.9747 11.1012 14.8176 11.1422 14.6575C9.05652 14.6104 7.49586 13.0829 7.49586 11.0691C7.49586 9.64743 8.63237 8.26199 10.2577 7.7025C10.7441 7.53453 11.2401 7.44873 11.7277 7.44873H16.188C16.3396 7.44873 16.4744 7.54722 16.5215 7.69162C16.5686 7.83542 16.5166 7.99372 16.394 8.08254L15.3964 8.80457C15.3366 8.84686 15.2647 8.86982 15.1904 8.86982H14.8333C15.2943 9.42267 15.5644 10.2112 15.5644 11.0963C15.5644 12.0733 15.0702 12.9971 14.1705 13.701C13.4757 14.2424 13.4485 14.3917 13.4485 14.7004C13.4569 14.8702 13.9409 15.4242 14.475 15.8019C15.7191 16.6816 16.1819 17.545 16.1819 18.9854C16.1813 20.4905 15.0388 21.7907 13.2709 22.3043ZM23.3436 14.6539C23.3436 14.8472 23.1859 15.0043 22.9931 15.0043H20.4585V17.5402C20.4585 17.7335 20.3008 17.8906 20.1092 17.8906H19.3872C19.1927 17.8906 19.0356 17.7335 19.0356 17.5402V15.0043H16.5027C16.3094 15.0043 16.1523 14.8484 16.1523 14.6539V13.9331C16.1523 13.7397 16.3094 13.5814 16.5027 13.5814H19.0356V11.048C19.0356 10.854 19.1927 10.6975 19.3872 10.6975H20.1092C20.3008 10.6975 20.4585 10.854 20.4585 11.048V13.5814H22.9925C23.1853 13.5814 23.343 13.7385 23.343 13.9319L23.3436 14.6539ZM12.8179 17.3685L12.8179 17.3684C12.7757 17.3394 12.7328 17.31 12.6891 17.2804C12.3852 17.1873 12.0625 17.139 11.732 17.1348H11.6921C10.1732 17.1348 8.84149 18.0538 8.84149 19.1027C8.84149 20.2446 9.98284 21.137 11.439 21.137C13.3597 21.137 14.3331 20.4736 14.3331 19.1685C14.3331 19.0453 14.3186 18.9172 14.2878 18.7885C14.1584 18.2841 13.6968 17.9686 12.9987 17.4913L12.9906 17.4858C12.934 17.4482 12.8766 17.4088 12.8179 17.3685ZM11.9149 13.5053H11.9137H11.8998C10.9349 13.4751 9.97058 12.3349 9.79778 11.0154C9.70171 10.2776 9.857 9.6142 10.2237 9.19549C10.46 8.92481 10.7712 8.78101 11.1198 8.78101L11.1591 8.78221C12.1445 8.81061 13.0889 9.91026 13.2611 11.2311C13.359 11.97 13.194 12.666 12.8218 13.0902C12.5844 13.3621 12.278 13.5053 11.9149 13.5053Z" fill="#222222"/>
</svg>
