<svg width="30" height="30" viewBox="0 0 30 30" fill="none" xmlns="http://www.w3.org/2000/svg">
<path d="M11.25 22.2655H7.5V9.14049H11.25V22.2655ZM9.49123 8.33614C8.51998 8.33614 7.73438 7.54862 7.73438 6.57737C7.73438 5.60612 8.52189 4.8186 9.49123 4.8186C10.4625 4.82045 11.25 5.60797 11.25 6.57737C11.25 7.54862 10.4625 8.33614 9.49123 8.33614ZM24.375 22.2655H20.625V14.1505C20.625 13.1999 20.3531 12.5343 19.185 12.5343C17.2481 12.5343 16.875 14.1505 16.875 14.1505V22.2655H13.125V9.14049H16.875V10.3948C17.4112 9.98425 18.7499 9.14234 20.625 9.14234C21.84 9.14234 24.375 9.86984 24.375 14.2648V22.2655Z" fill="#222222"/>
</svg>
