<svg width="30" height="30" viewBox="0 0 30 30" fill="none" xmlns="http://www.w3.org/2000/svg">
<path fill-rule="evenodd" clip-rule="evenodd" d="M17.6878 7.01575H16.6686V11.4763C16.6686 11.8744 16.7026 12.1441 16.7591 12.3151C16.8616 12.6005 17.0887 12.734 17.4177 12.734C17.7906 12.734 18.1785 12.5078 18.5855 12.0413V12.6564H19.6075V7.01575H18.5855V11.3272C18.3587 11.6473 18.1442 11.8056 17.9398 11.8056C17.8029 11.8056 17.7225 11.7246 17.7001 11.5662C17.6878 11.5328 17.6878 11.4085 17.6878 11.1689V11.1688V7.01575ZM13.1281 7.52614C12.9108 7.81125 12.8083 8.25197 12.8083 8.85504V10.8303C12.8083 11.4297 12.9108 11.8747 13.1281 12.1567C13.4108 12.5416 13.8088 12.734 14.3183 12.734C14.8302 12.734 15.2279 12.5416 15.5106 12.1567C15.7248 11.8747 15.8273 11.43 15.8273 10.8303V8.85504C15.8273 8.25197 15.7248 7.81094 15.5106 7.52614C15.2279 7.14036 14.8302 6.94762 14.3183 6.94762C13.8088 6.94762 13.4108 7.14036 13.1281 7.52614ZM10.8797 8.05954L10.075 5.08716H8.88268C9.00069 5.43407 9.12118 5.78165 9.24169 6.12932L9.2417 6.12934L9.24171 6.12936L9.24173 6.12941C9.36504 6.48514 9.48838 6.84095 9.60912 7.19621C9.97281 8.25197 10.1996 9.04777 10.3024 9.59099V12.6567H11.4355V9.59099L12.7991 5.08716H11.6528L10.8797 8.05954ZM21.2663 24.6809C22.1425 24.583 22.8702 23.9262 23.0752 23.0365C23.3671 21.7693 23.3683 20.3855 23.3683 19.0805V19.056C23.3683 17.7583 23.3683 16.3841 23.0792 15.1245C22.8739 14.2345 22.1459 13.578 21.2697 13.4801C19.1944 13.2484 17.0939 13.2472 15.003 13.2484C12.9114 13.2472 10.811 13.2484 8.73567 13.4801C7.85946 13.5777 7.13209 14.2345 6.92738 15.1245C6.63582 16.392 6.63214 17.7755 6.63214 19.0805C6.63214 20.3855 6.63214 21.7693 6.92401 23.0365C7.12841 23.9265 7.85639 24.583 8.7326 24.6809C10.8076 24.9126 12.9084 24.9139 14.9993 24.9126C17.0912 24.9139 19.1907 24.9126 21.2663 24.6809ZM19.4036 17.4659C19.6957 17.0838 20.0975 16.8938 20.6149 16.8938C21.1225 16.8938 21.5249 17.0841 21.8075 17.4653C22.0196 17.7476 22.1206 18.184 22.1206 18.7803V19.9365H20.0975V20.9265C20.0975 21.4428 20.2675 21.7006 20.6149 21.7006C20.8638 21.7006 21.0093 21.5655 21.067 21.2951C21.0759 21.2402 21.0891 21.0152 21.0891 20.6101H22.1206V20.7571C22.1206 21.0834 22.1086 21.3077 22.0991 21.409C22.0653 21.633 21.9856 21.8359 21.8628 22.0151C21.5829 22.4206 21.1683 22.6203 20.6401 22.6203C20.111 22.6203 19.708 22.4298 19.4161 22.0486C19.2007 21.769 19.0911 21.3295 19.0911 20.7363V18.781C19.0911 18.1846 19.189 17.7482 19.4036 17.4659ZM20.0981 19.0949H21.1096V18.5784C21.1096 18.0625 20.9402 17.8041 20.6057 17.8041C20.2678 17.8041 20.0981 18.0622 20.0981 18.5784V19.0949ZM13.4503 21.2276C13.2259 21.5446 13.0138 21.7008 12.8107 21.7008C12.6756 21.7008 12.5986 21.6214 12.5741 21.4642C12.5648 21.4317 12.5648 21.3083 12.5648 21.0714V16.9619H11.5533V21.3749C11.5533 21.7693 11.5873 22.0357 11.6426 22.2051C11.7442 22.4881 11.9688 22.6206 12.2942 22.6206C12.6664 22.6206 13.0482 22.396 13.4503 21.935V22.5439H14.4624V16.9619H13.4503V21.2276ZM16.3485 17.4991C16.6747 17.0971 17.0218 16.8939 17.3938 16.8939C17.7958 16.8939 18.0671 17.1057 18.2019 17.5243C18.2697 17.7487 18.3044 18.1176 18.3044 18.646V20.8687C18.3044 21.3852 18.2697 21.7568 18.2019 21.9935C18.0668 22.409 17.7961 22.6208 17.3938 22.6208C17.0338 22.6208 16.687 22.4207 16.3485 22.003V22.5437H15.3372V15.0525H16.3485V17.4991ZM16.8524 21.701C17.1446 21.701 17.2925 21.4524 17.2925 20.9478V18.5656C17.2925 18.0623 17.1443 17.8039 16.8524 17.8039C16.6864 17.8039 16.5173 17.8831 16.3482 18.0503V21.4521C16.5173 21.6215 16.6864 21.701 16.8524 21.701ZM7.88019 16.1067H9.06945V22.5434H10.1946V16.1067H11.4059V15.0525H7.88019V16.1067ZM14.806 11.0224C14.806 11.5441 14.6479 11.8053 14.3186 11.8053C13.989 11.8053 13.8306 11.5444 13.8306 11.0224V8.64967C13.8306 8.12793 13.989 7.86768 14.3186 7.86768C14.6479 7.86768 14.806 8.12763 14.806 8.64967V11.0224Z" fill="#222222"/>
</svg>
